<mxfile host="app.diagrams.net" modified="2020-08-27T05:26:39.539Z" agent="5.0 (Windows NT 10.0; Win64; x64) AppleWebKit/537.36 (KHTML, like Gecko) Chrome/83.0.4103.106 Safari/537.36" etag="_zQo9vY28XoCVS5Iesb4" version="13.6.5" type="github">
  <diagram id="R2lEEEUBdFMjLlhIrx00" name="Page-1">
    <mxGraphModel dx="652" dy="350" grid="1" gridSize="10" guides="1" tooltips="1" connect="1" arrows="1" fold="1" page="1" pageScale="1" pageWidth="850" pageHeight="1100" math="0" shadow="0" extFonts="Permanent Marker^https://fonts.googleapis.com/css?family=Permanent+Marker">
      <root>
        <mxCell id="0" />
        <mxCell id="1" parent="0" />
        <mxCell id="rSMkX4Q4U0pAzID-_Mfk-12" style="rounded=0;orthogonalLoop=1;jettySize=auto;html=1;exitX=0.5;exitY=0;exitDx=0;exitDy=0;entryX=0.5;entryY=1;entryDx=0;entryDy=0;" edge="1" parent="1" source="rSMkX4Q4U0pAzID-_Mfk-1" target="rSMkX4Q4U0pAzID-_Mfk-5">
          <mxGeometry relative="1" as="geometry" />
        </mxCell>
        <mxCell id="rSMkX4Q4U0pAzID-_Mfk-13" style="edgeStyle=none;rounded=0;orthogonalLoop=1;jettySize=auto;html=1;exitX=0;exitY=0;exitDx=0;exitDy=0;entryX=0.5;entryY=1;entryDx=0;entryDy=0;" edge="1" parent="1" source="rSMkX4Q4U0pAzID-_Mfk-1" target="rSMkX4Q4U0pAzID-_Mfk-2">
          <mxGeometry relative="1" as="geometry" />
        </mxCell>
        <mxCell id="rSMkX4Q4U0pAzID-_Mfk-14" style="edgeStyle=none;rounded=0;orthogonalLoop=1;jettySize=auto;html=1;exitX=1;exitY=0;exitDx=0;exitDy=0;" edge="1" parent="1" source="rSMkX4Q4U0pAzID-_Mfk-1" target="rSMkX4Q4U0pAzID-_Mfk-8">
          <mxGeometry relative="1" as="geometry" />
        </mxCell>
        <mxCell id="rSMkX4Q4U0pAzID-_Mfk-15" style="edgeStyle=none;rounded=0;orthogonalLoop=1;jettySize=auto;html=1;exitX=1;exitY=0.5;exitDx=0;exitDy=0;entryX=0;entryY=0.5;entryDx=0;entryDy=0;" edge="1" parent="1" source="rSMkX4Q4U0pAzID-_Mfk-1" target="rSMkX4Q4U0pAzID-_Mfk-9">
          <mxGeometry relative="1" as="geometry" />
        </mxCell>
        <mxCell id="rSMkX4Q4U0pAzID-_Mfk-16" style="edgeStyle=none;rounded=0;orthogonalLoop=1;jettySize=auto;html=1;exitX=0;exitY=0.5;exitDx=0;exitDy=0;entryX=1;entryY=0.5;entryDx=0;entryDy=0;" edge="1" parent="1" source="rSMkX4Q4U0pAzID-_Mfk-1" target="rSMkX4Q4U0pAzID-_Mfk-3">
          <mxGeometry relative="1" as="geometry" />
        </mxCell>
        <mxCell id="rSMkX4Q4U0pAzID-_Mfk-17" style="edgeStyle=none;rounded=0;orthogonalLoop=1;jettySize=auto;html=1;exitX=0;exitY=1;exitDx=0;exitDy=0;" edge="1" parent="1" source="rSMkX4Q4U0pAzID-_Mfk-1" target="rSMkX4Q4U0pAzID-_Mfk-4">
          <mxGeometry relative="1" as="geometry" />
        </mxCell>
        <mxCell id="rSMkX4Q4U0pAzID-_Mfk-19" value="" style="edgeStyle=none;rounded=0;orthogonalLoop=1;jettySize=auto;html=1;" edge="1" parent="1" source="rSMkX4Q4U0pAzID-_Mfk-1" target="rSMkX4Q4U0pAzID-_Mfk-18">
          <mxGeometry relative="1" as="geometry" />
        </mxCell>
        <mxCell id="rSMkX4Q4U0pAzID-_Mfk-1" value="Atlantis" style="ellipse;whiteSpace=wrap;html=1;aspect=fixed;" vertex="1" parent="1">
          <mxGeometry x="280" y="150" width="90" height="90" as="geometry" />
        </mxCell>
        <mxCell id="rSMkX4Q4U0pAzID-_Mfk-2" value="Temples" style="rounded=1;whiteSpace=wrap;html=1;" vertex="1" parent="1">
          <mxGeometry x="210" y="120" width="70" height="20" as="geometry" />
        </mxCell>
        <mxCell id="rSMkX4Q4U0pAzID-_Mfk-3" value="Valcanoes" style="rounded=1;whiteSpace=wrap;html=1;" vertex="1" parent="1">
          <mxGeometry x="180" y="185" width="70" height="20" as="geometry" />
        </mxCell>
        <mxCell id="rSMkX4Q4U0pAzID-_Mfk-4" value="Marine animals" style="rounded=1;whiteSpace=wrap;html=1;" vertex="1" parent="1">
          <mxGeometry x="180" y="250" width="100" height="20" as="geometry" />
        </mxCell>
        <mxCell id="rSMkX4Q4U0pAzID-_Mfk-5" value="Underwater tunnel" style="rounded=1;whiteSpace=wrap;html=1;" vertex="1" parent="1">
          <mxGeometry x="290" y="100" width="110" height="20" as="geometry" />
        </mxCell>
        <mxCell id="rSMkX4Q4U0pAzID-_Mfk-8" value="Geocentric hiking" style="rounded=1;whiteSpace=wrap;html=1;" vertex="1" parent="1">
          <mxGeometry x="390" y="140" width="110" height="20" as="geometry" />
        </mxCell>
        <mxCell id="rSMkX4Q4U0pAzID-_Mfk-9" value="Mysterious lines" style="rounded=1;whiteSpace=wrap;html=1;" vertex="1" parent="1">
          <mxGeometry x="400" y="190" width="110" height="20" as="geometry" />
        </mxCell>
        <mxCell id="rSMkX4Q4U0pAzID-_Mfk-11" style="edgeStyle=orthogonalEdgeStyle;rounded=0;orthogonalLoop=1;jettySize=auto;html=1;exitX=0.5;exitY=1;exitDx=0;exitDy=0;" edge="1" parent="1" source="rSMkX4Q4U0pAzID-_Mfk-2" target="rSMkX4Q4U0pAzID-_Mfk-2">
          <mxGeometry relative="1" as="geometry" />
        </mxCell>
        <mxCell id="rSMkX4Q4U0pAzID-_Mfk-18" value="Carnivals" style="rounded=1;whiteSpace=wrap;html=1;" vertex="1" parent="1">
          <mxGeometry x="340" y="260" width="100" height="20" as="geometry" />
        </mxCell>
      </root>
    </mxGraphModel>
  </diagram>
</mxfile>
